<?xml version="1.0" standalone="no"?>
<!DOCTYPE svg PUBLIC "-//W3C//DTD SVG 1.1//EN" "http://www.w3.org/Graphics/SVG/1.1/DTD/svg11.dtd" >
<svg xmlns="http://www.w3.org/2000/svg">
<metadata>Generated by IcoMoon</metadata>
<defs>
<font id="icomoon" horiz-adv-x="1024">
<font-face units-per-em="1024" ascent="960" descent="-64" />
<missing-glyph horiz-adv-x="1024" />
<glyph unicode="&#x20;" horiz-adv-x="512" d="" />
<glyph unicode="&#xe900;" glyph-name="add" d="M512-64c-29.257 0-54.857 25.6-54.857 54.857v914.286c0 29.257 25.6 54.857 54.857 54.857s54.857-25.6 54.857-54.857v-914.286c0-29.257-25.6-54.857-54.857-54.857zM969.143 393.143h-914.286c-29.257 0-54.857 25.6-54.857 54.857s25.6 54.857 54.857 54.857h914.286c29.257 0 54.857-25.6 54.857-54.857s-25.6-54.857-54.857-54.857z" />
<glyph unicode="&#xe901;" glyph-name="add-circle" d="M512 960c-282.020 0-512-229.98-512-512s229.98-512 512-512 512 229.98 512 512-229.98 512-512 512zM688.262 406.033h-134.295v-134.295c0-23.502-18.466-41.967-41.967-41.967s-41.967 18.466-41.967 41.967v134.295h-132.616c-23.502 0-41.967 18.466-41.967 41.967s18.466 41.967 41.967 41.967h132.616v132.616c0 23.502 18.466 41.967 41.967 41.967s41.967-18.466 41.967-41.967v-132.616h134.295c23.502 0 41.967-18.466 41.967-41.967s-18.466-41.967-41.967-41.967z" />
<glyph unicode="&#xe902;" glyph-name="add-icon---2" d="M512-64c-57.344 0-102.4 45.056-102.4 102.4v819.2c0 57.344 45.056 102.4 102.4 102.4s102.4-45.056 102.4-102.4v-819.2c0-57.344-45.056-102.4-102.4-102.4zM921.6 345.6h-819.2c-57.344 0-102.4 45.056-102.4 102.4s45.056 102.4 102.4 102.4h819.2c57.344 0 102.4-45.056 102.4-102.4s-45.056-102.4-102.4-102.4z" />
<glyph unicode="&#xe903;" glyph-name="arrow-down" d="M512 140.8c-26.624 0-53.248 10.24-71.68 30.72l-409.6 409.6c-40.96 40.96-40.96 104.448 0 145.408s104.448 40.96 145.408 0l335.872-337.92 337.92 335.872c40.96 40.96 104.448 40.96 145.408 0s40.96-104.448 0-145.408l-409.6-409.6c-20.48-18.432-47.104-28.672-73.728-28.672z" />
<glyph unicode="&#xe904;" glyph-name="arrow-down-2" d="M512 163.556c-13.653 0-29.582 4.551-40.96 15.929l-455.111 455.111c-22.756 22.756-22.756 59.164 0 79.644 22.756 22.756 59.164 22.756 79.644 0l414.151-414.151 414.151 414.151c22.756 22.756 59.164 22.756 79.644 0s22.756-59.164 0-79.644l-455.111-455.111c-6.827-11.378-22.756-15.929-36.409-15.929z" />
<glyph unicode="&#xe905;" glyph-name="arrow-next-2" d="M284.444-64c-13.653 0-29.582 4.551-40.96 15.929-22.756 22.756-22.756 59.164 0 79.644l414.151 414.151-414.151 414.151c-22.756 22.756-22.756 59.164 0 79.644 22.756 22.756 59.164 22.756 79.644 0l455.111-455.111c22.756-22.756 22.756-59.164 0-79.644l-455.111-455.111c-9.102-9.102-25.031-13.653-38.684-13.653z" />
<glyph unicode="&#xe906;" glyph-name="arrow-prev" d="M731.429-64c-19.017 0-38.034 7.314-51.2 21.943l-438.857 438.857c-29.257 29.257-29.257 74.606 0 103.863l438.857 438.857c29.257 29.257 74.606 29.257 103.863 0s29.257-74.606 0-103.863l-387.657-387.657 387.657-387.657c29.257-29.257 29.257-74.606 0-103.863-14.629-13.166-33.646-20.48-52.663-20.48z" />
<glyph unicode="&#xe907;" glyph-name="arrow-prev-2" d="M739.556-64c-13.653 0-29.582 4.551-40.96 15.929l-455.111 455.111c-22.756 22.756-22.756 59.164 0 79.644l455.111 455.111c22.756 22.756 59.164 22.756 79.644 0s22.756-59.164 0-79.644l-414.151-414.151 414.151-414.151c22.756-22.756 22.756-59.164 0-79.644-9.102-13.653-25.031-18.204-38.684-18.204z" />
<glyph unicode="&#xe908;" glyph-name="arrow-up" d="M921.6 140.8c-26.624 0-53.248 10.24-71.68 30.72l-337.92 335.872-337.92-335.872c-40.96-40.96-104.448-40.96-145.408 0s-40.96 104.448 0 145.408l409.6 409.6c40.96 40.96 104.448 40.96 145.408 0l409.6-409.6c40.96-40.96 40.96-104.448 0-145.408-18.432-20.48-45.056-30.72-71.68-30.72z" />
<glyph unicode="&#xe909;" glyph-name="arrow-up-2" d="M967.111 163.556c-13.653 0-29.582 4.551-40.96 15.929l-414.151 414.151-414.151-414.151c-22.756-22.756-59.164-22.756-79.644 0-22.756 22.756-22.756 59.164 0 79.644l455.111 455.111c22.756 22.756 59.164 22.756 79.644 0l455.111-455.111c22.756-22.756 22.756-59.164 0-79.644-11.378-11.378-27.307-15.929-40.96-15.929z" />
<glyph unicode="&#xe90a;" glyph-name="cart" d="M215.904 47.036c-46.882 0-86.361 32.077-97.465 76.492l-115.971 458.949c-9.87 35.778 12.337 72.79 48.116 82.66 4.935 1.234 11.104 2.467 17.272 2.467h888.289c37.012 1.234 66.622-29.61 67.855-66.622 0-4.935 0-11.104-1.234-16.039l-115.971-458.949c-9.87-44.414-50.583-77.725-97.465-77.725v0h-593.427c0-1.234 0-1.234 0-1.234zM957.378 604.684v0h-890.757c-3.701-1.234-4.935-3.701-3.701-7.402l115.971-458.949c4.935-17.272 19.74-29.61 38.246-29.61v0h592.193c18.506 0 34.545 12.337 38.246 30.843l115.971 460.183c0 0 0 0 0 1.234-1.234 2.467-3.701 3.701-6.169 3.701zM757.513 615.788c-7.402 0-14.805 4.935-17.272 12.337l-60.453 156.684v1.234c-2.467 7.402-8.636 12.337-16.039 13.571h-303.499c-7.402-1.234-13.571-6.169-16.039-13.571v-1.234l-60.453-156.684c-3.701-9.87-14.805-14.805-23.441-11.104-9.87 3.701-14.805 14.805-11.104 23.441l60.453 156.684c6.169 20.973 25.908 37.012 48.116 39.48h307.2c22.207-2.467 41.947-17.272 48.116-39.48l60.453-156.684c3.701-9.87-1.234-19.74-11.104-23.441 0 0-2.467-1.234-4.935-1.234zM587.258 787.277h-150.516c-17.272 0-30.843 13.571-30.843 30.843s13.571 30.843 30.843 30.843h150.516c17.272 0 30.843-13.571 30.843-30.843s-13.571-30.843-30.843-30.843z" />
<glyph unicode="&#xe90b;" glyph-name="cash" d="M965.085 763.616h-25.249v5.611c-1.403 16.833-14.027 29.458-30.86 29.458h-879.518c-15.43 0-29.458-14.027-29.458-29.458v-568.11c0-16.833 12.625-29.458 29.458-29.458h5.611v-26.652c0-28.055 22.444-50.499 50.499-50.499h880.921c29.458 1.403 50.499 23.847 50.499 51.901v568.11c-1.403 26.652-23.847 49.096-51.901 49.096zM403.989 490.082h16.833c33.666 0 51.901 14.027 54.707 36.471h-71.54v15.43h70.137c-4.208 18.236-21.041 26.652-47.693 26.652h-22.444v19.638h131.858c0 0 0-15.43 0-15.43h-51.901c9.819-8.416 15.43-19.638 18.236-32.263h33.666v-15.43h-33.666c-2.805-32.263-28.055-51.901-68.734-53.304 23.847-25.249 50.499-57.512 77.151-89.775h-29.458c-23.847 29.458-47.693 57.512-77.151 88.373v19.638zM973.501 146.411c0-5.611-2.805-9.819-8.416-9.819h-879.518c-4.208 0-8.416 4.208-8.416 8.416v26.652h833.227c16.833 1.403 29.458 14.027 29.458 30.86v519.014h23.847c5.611 0 9.819-4.208 9.819-8.416v-566.707z" />
<glyph unicode="&#xe90c;" glyph-name="check-1" d="M368.64 84.945c-13.033 0-24.204 5.585-33.513 14.895l-322.095 331.404c-18.618 18.618-16.756 48.407 1.862 65.164 18.618 18.618 48.407 16.756 65.164-1.862l288.582-296.029 575.302 597.644c18.618 18.618 46.545 18.618 65.164 1.862 18.618-18.618 18.618-46.545 1.862-65.164l-608.815-633.018c-9.309-9.309-20.48-14.895-33.513-14.895v0z" />
<glyph unicode="&#xe90d;" glyph-name="check-2" d="M380.587 72.533c-23.893 0-44.373 8.533-61.44 25.6l-295.253 303.787c-32.427 34.133-32.427 87.040 1.707 121.173 34.133 32.427 87.040 32.427 121.173-1.707l233.813-240.64 496.64 517.12c32.427 34.133 87.040 35.84 121.173 1.707 34.133-32.427 35.84-87.040 1.707-121.173l-558.080-580.267c-15.36-15.36-37.547-25.6-61.44-25.6v0z" />
<glyph unicode="&#xe90e;" glyph-name="check-3" d="M380.587 72.533c-23.893 0-44.373 8.533-61.44 25.6l-295.253 303.787c-32.427 34.133-32.427 87.040 1.707 121.173 34.133 32.427 87.040 32.427 121.173-1.707l233.813-240.64 496.64 517.12c32.427 34.133 87.040 35.84 121.173 1.707 34.133-32.427 35.84-87.040 1.707-121.173l-558.080-580.267c-15.36-15.36-37.547-25.6-61.44-25.6v0z" />
<glyph unicode="&#xe90f;" glyph-name="check-circle-1" d="M511.421-63.907c-282.323 0-511.421 229.098-511.421 511.421s229.098 511.421 511.421 511.421 511.421-229.098 511.421-511.421c1.157-282.323-229.098-511.421-511.421-511.421zM511.421 902.239c-249.925 0-453.568-203.643-453.568-453.568s203.643-453.568 453.568-453.568 453.568 203.643 453.568 453.568-202.486 453.568-453.568 453.568zM444.312 270.484c-8.099 0-15.042 3.471-20.827 9.256l-151.575 156.203c-11.571 11.571-10.414 30.084 1.157 40.497 11.571 11.571 30.084 10.414 40.497-1.157l130.748-135.376 267.281 276.538c11.571 11.571 28.927 11.571 40.497 1.157 11.571-11.571 11.571-28.927 1.157-40.497l-288.108-297.365c-5.785-5.785-13.885-9.256-20.827-9.256v0z" />
<glyph unicode="&#xe910;" glyph-name="check-circle-2" d="M512-64c-282.388 0-512 229.612-512 512s229.612 512 512 512 512-229.612 512-512c0-282.388-229.612-512-512-512zM512 920.615c-260.726 0-472.615-211.889-472.615-472.615s211.889-472.615 472.615-472.615 472.615 211.889 472.615 472.615-211.889 472.615-472.615 472.615zM442.683 276.677c-5.514 0-10.24 1.969-14.178 5.908l-154.782 159.902c-7.483 7.877-7.483 20.086 0.394 27.963 7.877 7.483 20.086 7.483 27.963-0.394l140.997-145.329 279.631 288.689c7.483 7.877 20.086 7.877 27.963 0.394s7.877-20.086 0.394-27.963l-293.809-303.262c-4.332-3.938-9.452-5.908-14.572-5.908v0z" />
<glyph unicode="&#xe911;" glyph-name="close" d="M955.985 132.487l-313.624 313.624 309.845 309.845c37.786 34.007 34.007 94.465 0 132.251s-94.465 37.786-132.251 0l-309.845-309.845-309.845 309.845c-34.007 37.786-94.465 37.786-132.251 0-37.786-34.007-37.786-94.465 0-132.251l309.845-309.845-309.845-309.845c-37.786-34.007-37.786-94.465 0-132.251 18.893-18.893 45.343-26.45 68.015-26.45s45.343 11.336 64.236 26.45l309.845 309.845 309.845-309.845c18.893-18.893 45.343-26.45 68.015-26.45s45.343 11.336 64.236 26.45c41.565 30.229 41.565 90.686 3.779 128.472z" />
<glyph unicode="&#xe912;" glyph-name="close-circle" d="M511.407 810.494c-199.342 0-361.9-162.559-361.9-361.9s162.559-361.9 361.9-361.9 361.9 162.559 361.9 361.9-162.559 361.9-361.9 361.9zM619.384 339.43c-4.746-5.933-11.866-8.306-20.171-8.306-7.119 0-15.425 2.373-21.358 8.306l-66.447 67.634-66.447-67.634c-4.746-5.933-11.866-8.306-20.171-8.306-7.119 0-15.425 2.373-21.358 8.306-11.866 11.866-11.866 30.851 0 41.53l67.634 67.634-67.634 67.634c-11.866 11.866-11.866 30.851 0 41.53s30.851 11.866 41.53 0l66.447-67.634 66.447 67.634c11.866 11.866 30.851 11.866 41.53 0s11.866-30.851 0-41.53l-67.634-67.634 67.634-67.634c11.866-11.866 11.866-30.851 0-41.53z" />
<glyph unicode="&#xe913;" glyph-name="confirmed" d="M660.945 124.842c-6.649 0-11.969 2.66-15.958 6.649l-90.431 91.761c-9.309 9.309-9.309 23.938 0 33.247s23.938 9.309 33.247 0l73.143-74.473 154.265 156.925c9.309 9.309 23.938 9.309 33.247 0s9.309-23.938 0-33.247l-170.223-174.213c-5.319-5.319-10.639-6.649-17.288-6.649v0zM446.836 587.636h-265.974c-11.969 0-22.608 9.309-22.608 22.608v0c0 11.969 9.309 22.608 21.278 22.608h267.304c11.969 0 22.608-10.639 22.608-22.608s-10.639-22.608-22.608-22.608v0zM867.075 473.268v202.14c0 6.649-1.33 11.969-6.649 15.958l-265.974 263.314c-3.99 3.99-9.309 6.649-15.958 6.649h-485.403c-35.906 0-66.494-29.257-66.494-65.164v-880.374c0-37.236 29.257-66.494 66.494-66.494h518.649c7.979-2.66 15.958-5.319 23.938-6.649 19.948-3.99 38.566-5.319 58.514-5.319 1.33 1.33 2.66 1.33 3.99-1.33 78.462 0 152.935 30.587 208.79 86.442 57.184 55.855 87.771 130.327 87.771 208.79-1.33 97.081-47.875 186.182-127.668 242.036zM602.431 886.857l190.171-188.842h-190.171v188.842zM93.091-6.816c-11.969 0-22.608 9.309-22.608 21.278v879.044c0 11.969 9.309 22.608 22.608 22.608h464.125v-240.706c0-11.969 9.309-22.608 22.608-22.608h243.366v-155.595c-38.566 18.618-82.452 29.257-125.008 29.257h-1.33c-43.886 0-85.112-9.309-123.678-26.597-1.33 0-1.33-1.33-2.66-1.33-2.66 1.33-6.649 2.66-9.309 2.66h-379.013c-11.969 0-22.608-10.639-22.608-22.608s10.639-22.608 22.608-22.608h321.829c-27.927-23.938-51.865-53.195-69.153-85.112 0 0 0-1.33-1.33-1.33h-251.345c-11.969 0-22.608-10.639-22.608-22.608s10.639-22.608 22.608-22.608h231.397c-9.309-27.927-14.629-57.184-14.629-86.442h-216.769c-11.969 0-22.608-10.639-22.608-22.608s10.639-22.608 22.608-22.608h219.429c11.969-81.122 55.855-152.935 121.018-199.481h-429.548zM696.852-14.795c-1.33 0-1.33 0 0 0-18.618 0-34.577 1.33-51.865 5.319-25.268 5.319-47.875 13.299-70.483 26.597-69.153 38.566-115.699 106.39-126.338 184.852-1.33 11.969-2.66 22.608-2.66 33.247v1.33c0 29.257 5.319 57.184 14.629 83.782 3.99 10.639 7.979 19.948 14.629 30.587 19.948 34.577 46.545 66.494 81.122 89.101 10.639 7.979 22.608 14.629 35.906 19.948 33.247 14.629 69.153 22.608 105.060 22.608h1.33c39.896 0 78.462-10.639 113.039-29.257 6.649-3.99 11.969-6.649 18.618-10.639 73.143-45.216 117.029-123.678 117.029-210.119 0-135.647-111.709-247.356-250.016-247.356z" />
<glyph unicode="&#xe914;" d="M749.972 750.873c-2.885 0-4.327 0-7.211-1.442h14.423c-2.885 1.442-4.327 1.442-7.211 1.442z" />
<glyph unicode="&#xe915;" d="M993.713 339.831c-50.479 11.538-86.535 56.248-86.535 108.169s36.056 96.631 85.093 108.169c14.423 2.885 24.518 15.865 24.518 30.287v109.611c0 18.749-14.423 33.172-31.73 33.172h-227.876c8.654-2.885 14.423-11.538 14.423-20.192v-43.268c0-11.538-10.096-21.634-21.634-21.634s-21.634 10.096-21.634 21.634v43.268c0 8.654 5.769 17.307 14.423 20.192h-711.031c-17.307 0-31.73-15.865-31.73-33.172v-111.054c0-14.423 10.096-27.403 24.518-30.287 41.825-8.654 74.997-41.825 83.651-83.651 12.98-59.132-24.518-118.265-83.651-131.245-14.423-2.885-24.518-15.865-24.518-30.287v-111.054c0-18.749 14.423-33.172 31.73-33.172h954.772c17.307 0 31.73 15.865 31.73 33.172v111.054c0 15.865-10.096 28.845-24.518 30.287zM258.163 537.42c0 27.403 23.076 50.479 50.479 50.479s50.479-23.076 50.479-50.479-23.076-50.479-50.479-50.479-50.479 23.076-50.479 50.479zM301.431 282.141c-4.327 0-7.211 1.442-10.096 4.327-8.654 5.769-11.538 18.749-5.769 27.403l209.127 304.315c5.769 10.096 17.307 12.98 27.403 7.211s12.98-17.307 7.211-27.403c0-1.442-1.442-1.442-1.442-2.885l-210.569-305.758c-4.327-5.769-10.096-7.211-15.865-7.211zM507.673 319.639c-27.403 0-50.479 23.076-50.479 50.479s23.076 50.479 50.479 50.479 50.479-23.076 50.479-50.479-23.076-50.479-50.479-50.479zM771.606 204.259c0-11.538-10.096-21.634-21.634-21.634s-21.634 10.096-21.634 21.634v43.268c0 11.538 10.096 21.634 21.634 21.634s21.634-10.096 21.634-21.634v-43.268zM771.606 319.639c0-11.538-10.096-21.634-21.634-21.634s-21.634 10.096-21.634 21.634v43.268c0 11.538 10.096 21.634 21.634 21.634s21.634-10.096 21.634-21.634v-43.268zM771.606 435.020c0-11.538-10.096-21.634-21.634-21.634s-21.634 10.096-21.634 21.634v43.268c0 11.538 10.096 21.634 21.634 21.634s21.634-10.096 21.634-21.634v-43.268zM771.606 550.4c0-11.538-10.096-21.634-21.634-21.634s-21.634 10.096-21.634 21.634v43.268c0 11.538 10.096 21.634 21.634 21.634s21.634-10.096 21.634-21.634v-43.268z" />
<glyph unicode="&#xe916;" glyph-name="cursor" d="M512-64c-10.503 0-19.692 9.19-19.692 19.692v984.615c0 10.503 9.19 19.692 19.692 19.692s19.692-9.19 19.692-19.692v-984.615c0-10.503-9.19-19.692-19.692-19.692z" />
<glyph unicode="&#xe917;" glyph-name="delivery" d="M742.229 707.174v0c-1.707 3.413-3.413 5.12-3.413 5.12 1.707-3.413 3.413-5.12 3.413-5.12zM1024.102 241.579c0-90.453-73.387-163.84-163.84-163.84s-163.84 73.387-163.84 163.84v11.947c-8.533-8.533-15.36-17.067-20.48-22.187s-11.947-6.827-20.48-6.827h-232.107c-17.067 0-32.427 1.707-47.787 5.12-8.533-90.453-88.747-155.307-179.2-146.773-81.92 8.533-145.067 76.8-146.773 160.427 0 15.36 3.413 32.427 6.827 47.787-10.24-3.413-22.187-6.827-35.84-11.947-6.827-3.413-15.36 0-18.773 6.827-1.707 3.413-1.707 8.533 0 11.947 15.36 32.427 37.547 59.733 68.267 76.8 3.413 13.653 6.827 29.013 13.653 49.493 22.187 66.56 80.213 114.347 148.48 122.88h237.227c10.24 0 18.773-8.533 20.48-18.773 0 0 0 0 0-1.707 0-5.12-1.707-8.533-5.12-11.947-1.707-1.707-3.413-1.707-3.413-3.413-163.84-73.387-46.080-186.027-11.947-213.333 5.12-5.12 11.947-6.827 18.773-5.12h134.827c6.827 0 13.653 3.413 20.48 6.827l59.733 56.32c150.187 162.133-47.787 380.587-47.787 380.587-5.12 6.827-8.533 15.36-10.24 23.893h-112.64c-8.533 0-17.067 6.827-17.067 15.36s6.827 17.067 15.36 17.067c0 0 0 0 1.707 0h116.053c13.653 18.773 47.787 23.893 61.44 8.533 5.12-6.827 10.24-15.36 13.653-23.893 6.827 8.533 15.36 15.36 23.893 18.773v0c3.413 3.413 6.827 6.827 11.947 5.12 15.36 0 23.893-27.307 23.893-52.907s-6.827-52.907-23.893-52.907c-5.12 0-10.24 3.413-11.947 6.827-1.707 1.707-3.413 3.413-3.413 5.12 0-1.707 1.707-3.413 1.707-5.12 8.533-30.72 18.773-59.733 30.72-87.040 27.307-63.147 44.373-109.227 46.080-150.187 1.707 1.707 3.413 1.707 6.827 1.707 117.76 5.12 170.667-61.44 189.44-104.107 3.413-6.827 1.707-15.36-5.12-18.773-3.413-1.707-8.533-1.707-13.653 0-6.827 3.413-11.947 5.12-18.773 6.827 25.6-23.893 42.667-64.853 42.667-109.227zM494.626 588.612c0-20.48-17.067-35.84-35.84-35.84h-226.987c-20.48 0-35.84 15.36-35.84 35.84v0c0 20.48 17.067 35.84 35.84 35.84h226.987c18.773 0 35.84-15.36 35.84-35.84v0zM433.596 768.939h-180.907c-17.067 0-30.72-13.653-30.72-29.013v-78.507c0-17.067 13.653-30.72 30.72-29.013h180.907c17.067 0 30.72 13.653 30.72 29.013v78.507c0 15.36-13.653 29.013-30.72 29.013z" />
<glyph unicode="&#xe918;" glyph-name="delivery-circle" d="M662.24 650.259v0c-0.759 0.759-1.517 2.276-1.517 3.034 0-1.517 1.517-1.517 1.517-3.034zM858.188 322.154c0-62.199-50.821-113.019-113.019-113.019s-113.019 50.821-113.019 113.019v8.344l-14.412-14.412c-3.793-3.034-8.344-5.31-12.895-4.551h-163.081c-11.378 0-22.756 0.759-34.133 3.034-4.551-59.164-53.855-104.676-113.019-105.434-62.199-0.759-113.019 49.304-113.019 111.502 0 0.759 0 0.759 0 1.517 0 11.378 1.517 22.756 4.551 34.133-9.102-2.276-17.446-4.551-25.79-8.344-5.31-1.517-11.378 1.517-13.653 6.827-0.759 2.276-0.759 5.31 0.759 7.585 10.619 21.997 26.548 40.96 47.028 54.613 2.276 11.378 5.31 22.756 9.861 34.133 13.653 47.028 54.613 81.161 103.159 87.23h163.081c8.344 0 14.412-6.068 14.412-14.412v0c0-3.034-1.517-6.068-3.034-8.344 0-1.517-1.517-1.517-3.034-1.517-113.019-51.579-32.616-131.224-8.344-150.187 3.793-3.034 8.344-5.31 12.895-4.551h94.056c4.551 0 9.102 1.517 12.895 4.551l40.201 40.201c105.434 114.536-34.133 270.033-34.133 270.033-3.034 5.31-6.068 10.619-8.344 15.929h-75.852c-6.068 0-11.378 5.31-11.378 11.378s5.31 11.378 11.378 11.378v0h78.886c9.861 14.412 32.616 15.929 41.719 6.827 3.793-5.31 6.827-10.619 9.861-15.929 3.793 6.068 9.102 11.378 15.929 14.412v0c1.517 3.034 4.551 4.551 8.344 4.551 11.378 0 15.929-19.721 15.929-37.167 0-19.721-6.827-37.167-15.929-37.167-3.034 0-6.827 1.517-8.344 4.551-0.759 0.759-1.517 2.276-1.517 3.034 0-1.517 0-1.517 1.517-3.034 5.31-21.239 12.136-41.719 21.239-61.44 19.721-43.994 30.341-77.369 30.341-106.951 1.517 0 3.034 1.517 4.551 1.517 82.679 3.034 118.329-43.994 131.224-72.818 2.276-5.31-0.759-10.619-6.068-12.895-2.276-0.759-4.551-0.759-6.827 0-4.551 1.517-8.344 3.034-12.895 4.551 24.273-20.48 37.167-50.821 37.926-82.679zM490.951 567.694c0-14.412-11.378-25.79-25.031-25.79h-159.289c-14.412 0-25.79 11.378-25.79 25.031v0.759c0 14.412 11.378 25.79 25.031 25.79h159.289c13.653-0.759 25.031-12.136 25.79-25.79v0zM437.969 695.345h-101.641c-18.204 0-32.616-14.412-32.616-32.616v-34.133c0-18.204 14.412-32.616 32.616-32.616h101.641c18.204 0 32.616 14.412 32.616 32.616v34.133c-0.759 18.204-15.17 32.616-32.616 32.616zM512-64c-282.169 0-512 229.831-512 512s229.831 512 512 512 512-229.831 512-512-229.831-512-512-512zM512 922.074c-261.689 0-474.074-212.385-474.074-474.074s212.385-474.074 474.074-474.074 474.074 212.385 474.074 474.074-212.385 474.074-474.074 474.074z" />
<glyph unicode="&#xe919;" glyph-name="error" d="M512 185.173c-23.893 0-42.667 18.773-42.667 42.667v689.493c0 23.893 18.773 42.667 42.667 42.667s42.667-18.773 42.667-42.667v-689.493c0-23.893-18.773-42.667-42.667-42.667zM588.8 21.333c0-42.415-34.385-76.8-76.8-76.8s-76.8 34.385-76.8 76.8c0 42.415 34.385 76.8 76.8 76.8s76.8-34.385 76.8-76.8z" />
<glyph unicode="&#xe91a;" glyph-name="eye-off" d="M338 372c-11.2 27.2-17.6 57.6-16 88 6.4 97.6 84.8 174.4 182.4 180.8 30.4 1.6 60.8-3.2 88-16l76.8 76.8c-49.6 14.4-100.8 22.4-153.6 22.4-211.2 1.6-396.8-134.4-488-216-33.6-28.8-36.8-78.4-8-112 3.2-3.2 4.8-6.4 8-8 57.6-51.2 121.6-97.6 190.4-134.4l120 118.4zM798.8 650.4l-112-110.4c16-28.8 24-60.8 24-94.4-3.2-104-86.4-187.2-190.4-188.8-33.6 0-65.6 8-96 22.4l-80-78.4c56-19.2 113.6-28.8 171.2-28.8 212.8 0 396.8 136 488 217.6 33.6 30.4 35.2 81.6 4.8 115.2-1.6 1.6-3.2 3.2-4.8 4.8-62.4 56-131.2 102.4-204.8 140.8zM517.2 312.8c75.2 0 137.6 60.8 137.6 136 0 17.6-3.2 33.6-9.6 49.6l-177.6-176c16-6.4 32-9.6 49.6-9.6zM517.2 570.4c6.4 0 11.2-1.6 17.6-3.2l14.4 14.4c-11.2 1.6-20.8 3.2-32 3.2-75.2 0-137.6-60.8-137.6-136 0-11.2 1.6-20.8 3.2-32l86.4 86.4c-1.6 6.4-3.2 11.2-3.2 17.6 1.6 27.2 24 49.6 51.2 49.6zM445.2 332l188.8 187.2 41.6 41.6 102.4 100.8 70.4 70.4c16 14.4 16 40 1.6 54.4l-1.6 1.6c-14.4 16-40 16-54.4 1.6l-1.6-1.6-94.4-92.8-140.8-140.8-70.4-68.8-92.8-91.2-41.6-41.6-108.8-107.2-80-80c-16-14.4-16-40-1.6-54.4l1.6-1.6c6.4-8 17.6-11.2 27.2-11.2s20.8 3.2 27.2 11.2v0l185.6 185.6 41.6 36.8z" />
<glyph unicode="&#xe91b;" glyph-name="eye-on" d="M516 728c-212.8 0-398.4-139.2-489.6-220.8-32-28.8-35.2-80-6.4-112 1.6-1.6 3.2-4.8 6.4-6.4 91.2-81.6 275.2-220.8 489.6-220.8 212.8 0 398.4 139.2 488 220.8 32 28.8 35.2 80 6.4 112-1.6 1.6-3.2 4.8-6.4 6.4-91.2 81.6-275.2 220.8-488 220.8zM548 256c-105.6-19.2-208 51.2-227.2 158.4s51.2 208 158.4 227.2 208-51.2 227.2-158.4c3.2-22.4 4.8-44.8 0-67.2-12.8-81.6-76.8-145.6-158.4-160zM516 585.6c-75.2 1.6-137.6-60.8-139.2-136s60.8-137.6 136-139.2c76.8-1.6 137.6 60.8 139.2 136v1.6c0 75.2-60.8 137.6-136 137.6zM516 472c-27.2 0-49.6 22.4-49.6 49.6s22.4 49.6 49.6 49.6 49.6-22.4 49.6-49.6c0-27.2-22.4-49.6-49.6-49.6z" />
<glyph unicode="&#xe91c;" glyph-name="facebook" d="M591.36-64v468.48h158.72l23.040 181.76h-181.76v115.2c0 51.2 15.36 89.6 89.6 89.6h99.84v161.28c-46.080 5.12-94.72 7.68-143.36 7.68-138.24 0-235.52-84.48-235.52-240.64v-133.12h-158.72v-181.76h158.72v-468.48h189.44z" />
<glyph unicode="&#xe91d;" glyph-name="favourite" d="M512-16.372c-14.288 0-26.195 4.763-38.102 11.907l-30.958 23.814c-76.205 57.153-154.791 114.307-228.614 183.367-61.916 52.391-114.307 114.307-157.172 183.367-73.823 126.214-73.823 285.767 0 392.93 47.628 66.679 140.502 133.358 240.521 133.358 80.967 0 159.553-33.34 214.326-92.874 54.772 57.153 133.358 92.874 214.326 92.874 97.637-4.763 185.749-54.772 240.521-133.358 76.205-107.163 76.205-264.335 2.381-390.549-42.865-69.060-97.637-133.358-159.553-185.749-80.967-73.823-169.079-142.884-259.572-204.8-9.526-9.526-23.814-14.288-38.102-14.288zM297.674 840.93c-64.298 0-138.121-42.865-183.367-104.781-59.535-83.349-59.535-211.944 2.381-314.344 40.484-61.916 88.112-119.070 145.265-169.079 71.442-64.298 145.265-119.070 223.851-178.605l28.577-21.433c85.73 61.916 171.46 128.595 250.047 200.037 57.153 50.009 104.781 104.781 145.265 169.079 57.153 100.019 57.153 228.614 0 314.344v0c-40.484 59.535-109.544 100.019-183.367 102.4-61.916 0-121.451-26.195-164.316-73.823-28.577-26.195-71.442-26.195-97.637 0-42.865 50.009-104.781 76.205-166.698 76.205z" />
<glyph unicode="&#xe91e;" glyph-name="favourite-active" d="M966.847 779.014c-54.772 78.586-142.884 128.595-240.521 133.358-80.967 0-159.553-35.721-214.326-92.874-54.772 59.535-133.358 92.874-214.326 92.874-100.019 0-192.893-66.679-240.521-133.358-73.823-107.163-73.823-266.716 0-392.93 42.865-69.060 95.256-130.977 157.172-183.367 73.823-69.060 152.409-126.214 228.614-183.367l30.958-23.814c11.907-7.144 23.814-11.907 38.102-11.907s28.577 4.763 38.102 14.288c90.493 61.916 178.605 130.977 259.572 204.8 61.916 52.391 116.688 116.688 159.553 185.749 73.823 126.214 73.823 283.386-2.381 390.549z" />
<glyph unicode="&#xe91f;" glyph-name="gift-card" d="M216.039 510.439l-93.659-93.659c-4.995-4.995-12.488-4.995-16.234 0-2.498 2.498-3.746 4.995-3.746 7.493v32.468c0 7.493 2.498 13.737 7.493 19.98l47.454 46.205-61.19-7.493c-6.244 0-12.488 3.746-14.985 8.741h-81.171v46.205h86.166l14.985 56.195c2.498 11.239 13.737 17.483 24.976 14.985 1.249 0 1.249 0 2.498-1.249l83.668-66.185c1.249 3.746 3.746 6.244 6.244 7.493v207.298h47.454v-206.049c2.498-2.498 4.995-4.995 6.244-7.493l81.171 66.185c9.99 3.746 22.478-1.249 26.224-11.239 0-1.249 0-1.249 1.249-2.498l14.985-56.195h628.137v187.317c-2.498 19.98-16.234 32.468-34.966 32.468h-957.815c-16.234 0-31.22-13.737-31.22-31.22v-623.141c0-17.483 13.737-32.468 31.22-32.468h186.068l-1.249 405.854zM385.873 516.683l-61.19 7.493 42.459-43.707c4.995-4.995 7.493-11.239 7.493-18.732v-33.717c0-6.244-4.995-11.239-11.239-11.239-3.746 0-6.244 1.249-8.741 3.746l-84.917 94.907c-2.498-1.249-2.498-1.249-4.995-1.249v-409.6h726.79c19.98 0 32.468 14.985 32.468 34.966v387.122h-623.141c-3.746-6.244-8.741-9.99-14.985-9.99z" />
<glyph unicode="&#xe920;" glyph-name="google-plus" d="M512 960c-283.234 0-512-228.766-512-512s228.766-512 512-512 512 228.766 512 512-228.766 512-512 512zM546.86 323.813c-37.038-39.217-87.149-63.183-141.617-63.183-104.579-2.179-189.549 82.791-189.549 187.37 0 100.221 78.434 183.013 180.834 187.37 47.932 0 98.043-15.251 135.081-47.932-15.251-15.251-30.502-32.681-47.932-47.932-32.681 23.966-71.898 32.681-111.115 21.787-4.357-2.179-4.357-2.179-8.715-4.357-61.004-26.145-89.328-93.685-65.362-154.689 26.145-61.004 93.685-89.328 154.689-65.362 30.502 13.072 52.289 39.217 61.004 71.898-34.86 2.179-71.898 0-106.757 2.179v63.183h178.655c6.536-52.289-8.715-106.757-39.217-150.332zM810.485 419.677h-54.468v-54.468h-54.468v54.468h-54.468v54.468h54.468v54.468h54.468v-54.468h54.468v-54.468z" />
<glyph unicode="&#xe921;" glyph-name="gps" d="M225.28 443.904c0 12.288-10.24 22.528-22.528 22.528h-180.224c-12.288 0-22.528-10.24-22.528-22.528s10.24-22.528 22.528-22.528h180.224c12.288 0 22.528 10.24 22.528 22.528zM114.688 484.864h4.096c10.24-2.048 20.48 6.144 22.528 18.432 22.528 163.84 147.456 292.864 309.248 321.536 2.048 0 2.048 0 2.048 0 12.288 2.048 20.48 14.336 18.432 26.624 0 2.048 0 2.048 0 2.048-2.048 12.288-14.336 20.48-26.624 18.432-184.32-26.624-317.44-167.936-348.16-358.4-4.096-12.288 4.096-22.528 18.432-28.672zM512 747.008c12.288 0 22.528 10.24 22.528 22.528v167.936c-2.048 12.288-12.288 22.528-26.624 22.528-12.288 0-22.528-10.24-22.528-22.528v-172.032c0-2.048 0-4.096 0-4.096 4.096-12.288 16.384-18.432 26.624-14.336zM567.296 826.88c167.936-24.576 301.056-153.6 325.632-321.536 0-10.24 10.24-18.432 22.528-18.432h4.096c2.048 0 2.048 0 2.048 0 12.288 2.048 20.48 14.336 18.432 26.624-26.624 188.416-174.080 335.872-362.496 362.496-2.048 0-2.048 0-2.048 0-12.288 2.048-22.528-6.144-24.576-18.432-2.048-14.336 6.144-26.624 16.384-30.72zM921.6 398.848c-12.288 4.096-22.528-6.144-26.624-18.432-26.624-159.744-153.6-282.624-325.632-309.248-10.24-4.096-18.432-14.336-18.432-26.624 0-10.24 10.24-18.432 22.528-18.432h4.096c190.464 30.72 331.776 167.936 362.496 352.256 0 12.288-8.192 22.528-18.432 20.48zM1001.472 470.528h-167.936c-12.288 0-22.528-10.24-22.528-22.528s10.24-22.528 22.528-22.528h167.936c12.288 0 22.528 10.24 22.528 22.528s-10.24 22.528-22.528 22.528zM516.096 161.28c-12.288 0-22.528-10.24-22.528-22.528v-180.224c0-12.288 10.24-22.528 22.528-22.528s22.528 10.24 22.528 22.528v180.224c0 12.288-10.24 22.528-22.528 22.528zM448.512 79.36c-159.744 24.576-284.672 149.504-309.248 309.248-4.096 10.24-14.336 22.528-26.624 18.432-10.24-4.096-22.528-14.336-18.432-26.624 28.672-180.224 169.984-319.488 348.16-348.16h4.096c10.24-2.048 20.48 6.144 22.528 18.432 0 12.288-6.144 22.528-20.48 28.672zM737.28 448c0-124.419-100.861-225.28-225.28-225.28s-225.28 100.861-225.28 225.28c0 124.419 100.861 225.28 225.28 225.28s225.28-100.861 225.28-225.28z" />
<glyph unicode="&#xe922;" glyph-name="hamburger-menu" d="M972.8 396.8h-921.6c-27.794 0-51.2 23.406-51.2 51.2s23.406 51.2 51.2 51.2h921.6c27.794 0 51.2-23.406 51.2-51.2s-23.406-51.2-51.2-51.2zM972.8 31.086h-921.6c-27.794 0-51.2 23.406-51.2 51.2s23.406 51.2 51.2 51.2h921.6c27.794 0 51.2-23.406 51.2-51.2s-23.406-51.2-51.2-51.2zM972.8 762.514h-921.6c-27.794 0-51.2 23.406-51.2 51.2s23.406 51.2 51.2 51.2h921.6c27.794 0 51.2-23.406 51.2-51.2s-23.406-51.2-51.2-51.2z" />
<glyph unicode="&#xe923;" glyph-name="home" d="M978.024 364.408h-91.951v-348.996c0-20.898-18.808-39.706-39.706-39.706h-202.71c-20.898 0-39.706 16.718-39.706 39.706v165.094c0 20.898-18.808 39.706-39.706 39.706h-104.49c-20.898 0-39.706-16.718-39.706-39.706v-165.094c0-20.898-18.808-39.706-39.706-39.706h-204.8c-20.898 0-39.706 16.718-39.706 39.706v348.996h-91.951c-22.988 0-43.886 20.898-43.886 43.886 0 12.539 4.18 22.988 14.629 31.347l468.114 466.024c16.718 16.718 45.976 16.718 62.694 0l114.939-112.849v27.167c0 20.898 16.718 37.616 37.616 37.616h64.784c20.898 0 37.616-16.718 37.616-37.616v-167.184l215.249-213.159c14.629-22.988 8.359-52.245-14.629-66.873-6.269-4.18-14.629-6.269-22.988-8.359z" />
<glyph unicode="&#xe924;" glyph-name="instagram" d="M727.694 960h-433.566c-163.404 0-296.306-132.902-296.306-296.306v-433.566c0-163.404 132.902-296.306 296.306-296.306h433.566c163.404 0 296.306 132.902 296.306 296.306v433.566c0 163.404-132.902 296.306-296.306 296.306zM930.315 223.591c0-108.936-87.149-196.085-196.085-196.085v0h-442.281c-108.936 0-196.085 87.149-196.085 196.085v0 442.281c0 108.936 87.149 196.085 196.085 196.085v0h442.281c108.936 0 196.085-87.149 196.085-196.085v0-442.281zM512 711.626c-148.153 0-265.804-119.83-265.804-265.804s119.83-265.804 265.804-265.804 265.804 119.83 265.804 265.804-117.651 263.626-265.804 265.804zM512 271.523c-95.864 0-172.119 76.255-172.119 172.119s76.255 172.119 172.119 172.119 172.119-76.255 172.119-172.119v0c0-93.685-76.255-172.119-172.119-172.119zM847.523 720.34c0-33.692-27.313-61.004-61.004-61.004s-61.004 27.313-61.004 61.004c0 33.692 27.313 61.004 61.004 61.004s61.004-27.313 61.004-61.004z" />
<glyph unicode="&#xe925;" glyph-name="landscape-error" d="M460.531-44.059h-370.526c-38.265 0-69.524 31.259-69.524 69.524v381.305c0 38.265 31.259 69.524 69.524 69.524h346.813v20.48h-346.813c-49.583 0.808-90.004-39.882-90.004-89.465v-381.305c0-49.583 40.152-89.735 90.004-90.004h390.198c-3.773 3.234-7.545 6.467-11.048 10.24-3.234 2.964-6.198 6.198-8.623 9.701zM141.743 443.419h295.074v11.857h-306.931v-477.777h317.979c-0.808 2.156-1.617 3.773-2.425 5.928-0.808 1.886-1.617 3.773-2.156 5.928h-301.002v454.063h-0.539zM66.56 290.897v-148.48c0-3.234 2.695-5.928 5.928-5.928s5.928 2.695 5.928 5.928v148.48c0 3.234-2.425 5.928-5.659 5.928h-0.269c-3.234 0-5.928-2.695-5.928-5.928zM933.996 960h-381.575c-49.583 0-89.735-40.152-90.004-90.004v-843.722c0-12.396 2.695-24.792 7.545-36.109 0.808-2.156 1.617-4.042 2.964-5.928 1.347-2.156 2.156-4.312 3.503-5.928 5.12-8.084 11.318-15.091 18.594-21.288 4.851-3.773 10.24-7.276 15.629-10.24 12.935-6.737 27.217-10.24 41.499-10.24h381.575c49.583 0 89.735 40.152 90.004 90.004v843.453c0.269 49.314-39.613 89.735-88.926 90.004 0 0-0.269 0-0.808 0zM1004.059 464.438v-438.434c0-38.265-31.259-69.524-69.524-69.524h-381.575c-18.863 0-36.918 7.545-50.122 21.288-1.886 1.886-3.503 3.773-5.12 5.928-1.347 2.156-2.964 3.773-4.312 5.928-6.737 10.779-10.24 23.444-10.24 36.109v844.531c0 38.265 31.259 69.524 69.524 69.524h381.575c38.265 0 69.524-31.259 69.524-69.524v-405.827h0.269zM504.455 497.314v-421.457h477.507v754.257h-477.507v-332.8zM516.581 497.314v320.943h453.794v-731.082h-453.794v410.139zM743.747 61.575c-25.869 0-46.888-21.019-47.158-47.158 0-8.893 2.695-17.516 7.545-25.061 1.347-2.156 2.964-4.042 4.581-5.928 1.886-2.156 4.042-4.042 6.467-5.928 16.707-12.935 40.152-12.935 56.859 0 2.425 1.617 4.581 3.773 6.467 5.928 1.886 1.886 3.234 3.773 4.581 5.928 4.851 7.545 7.545 16.168 7.545 25.061 0 25.869-21.019 46.888-46.888 47.158zM768-10.644c-2.425-2.425-5.389-4.312-8.354-5.928-4.851-2.695-10.24-4.042-15.629-3.773-5.389 0-10.779 1.347-15.629 3.773-2.964 1.617-5.928 3.503-8.354 5.928-6.737 6.467-10.779 15.629-10.509 25.061 0 19.133 15.629 34.762 34.762 34.762s34.762-15.629 34.762-34.762c-0.539-9.432-4.581-18.324-11.048-25.061v0zM669.103 881.583h148.48c3.234 0 5.928 2.695 5.928 5.928s-2.695 5.928-5.928 5.928h-148.48c-3.234 0-5.928-2.425-5.928-5.659v-0.269c0-3.234 2.695-5.928 5.928-5.928zM92.968 554.981l2.425 27.217c16.977 129.347 118.568 231.208 247.916 248.185l-38.535-48.236c-3.503-4.312-2.964-10.779 1.347-14.282s10.779-3.234 14.282 1.078c0 0 0 0 0 0.269l54.164 66.56c2.964 3.503 2.156 8.893-1.347 11.587l-0.269 0.269-71.68 49.314c-4.581 3.234-10.779 1.886-14.013-2.425-3.234-4.581-2.156-11.048 2.425-14.282v0l46.349-29.642c-134.737-19.402-240.909-125.575-260.312-260.312l-2.425-30.451c5.12-8.084 12.665-10.24 19.672-4.851z" />
<glyph unicode="&#xe926;" glyph-name="location-pin" d="M510.362 960c-204.8 0-371.098-163.021-371.098-363.725 0-164.659 248.218-519.373 339.149-643.891 13.926-18.842 40.96-22.118 59.802-7.373 2.458 2.458 5.734 4.915 7.373 7.373 90.931 124.518 339.149 479.232 339.149 643.891-0.819 200.704-167.117 363.725-374.374 363.725zM510.362 471.757c-81.92-0.819-149.094 64.717-149.094 146.637-0.819 81.92 64.717 149.094 146.637 149.914s149.094-64.717 149.094-146.637c0-0.819 0-0.819 0-1.638 0.819-81.101-64.717-147.456-145.818-148.275 0 0 0 0-0.819 0z" />
<glyph unicode="&#xe927;" glyph-name="lock" d="M251.904 539.894c-16.384 0-30.72 14.336-30.72 30.72v86.016c0 165.888 129.024 303.104 284.672 303.104 157.696 0 284.672-135.168 284.672-303.104v-86.016c0-16.384-14.336-30.72-30.72-30.72s-30.72 14.336-30.72 30.72v86.016c0 133.12-100.352 241.664-223.232 241.664s-223.232-108.544-223.232-241.664v-86.016c0-16.384-12.288-30.72-30.72-30.72zM534.528 320.758c0-12.442-10.086-22.528-22.528-22.528s-22.528 10.086-22.528 22.528c0 12.442 10.086 22.528 22.528 22.528s22.528-10.086 22.528-22.528zM880.64 580.854h-737.28c-22.528 0-40.96-18.432-40.96-40.96v-550.912c0-22.528 18.432-40.96 40.96-40.96h735.232c22.528 0 40.96 18.432 40.96 40.96v550.912c0 22.528-16.384 40.96-36.864 40.96 0 0 0 0-2.048 0zM544.768 238.838v-110.592c0-16.384-14.336-30.72-32.768-30.72-16.384 0-30.72 14.336-30.72 30.72v110.592c-38.912 16.384-55.296 63.488-38.912 100.352s63.488 55.296 100.352 38.912 55.296-63.488 38.912-100.352c-6.144-18.432-18.432-30.72-36.864-38.912z" />
<glyph unicode="&#xe928;" glyph-name="make-icon" d="M998.716 472.020h-48.040v8.849c0 30.341-24.020 54.36-54.36 55.625h-40.454c-11.378 131.477-39.19 194.686-49.304 217.442-22.756 50.568-44.247 98.607-92.286 137.798-118.835 94.815-298.351 58.153-404.543-32.869-44.247-40.454-79.644-91.022-102.4-146.647-26.548-55.625-41.719-115.042-45.511-176.988h-35.398c-30.341 0-54.36-25.284-54.36-55.625v-8.849h-48.040c-12.642 0-24.020-11.378-24.020-24.020s10.114-24.020 22.756-24.020h49.304v-8.849c0-30.341 24.020-54.36 54.36-55.625h42.983c7.585-63.21 20.227-135.269 35.398-219.97 1.264-13.906 5.057-27.812 10.114-40.454 7.585-18.963 17.699-37.926 30.341-53.096 10.114-11.378 46.775-50.568 98.607-55.625 45.511-5.057 73.323 18.963 96.079 39.19 18.963 17.699 31.605 26.548 49.304 26.548 20.227 0 35.398-16.435 56.889-44.247 22.756-27.812 49.304-61.946 94.815-61.946h6.321c64.474 5.057 107.457 53.096 123.891 70.795 75.852 83.437 89.758 194.686 89.758 324.899 0 5.057 0 8.849 0 13.906h35.398c30.341 0 54.36 24.020 54.36 54.36v10.114h48.040c12.642 0 24.020 11.378 24.020 24.020 0 13.906-10.114 25.284-24.020 25.284zM249.047 693.254c18.963 39.19 41.719 88.494 89.758 130.212 88.494 75.852 246.519 109.985 343.862 31.605 39.19-31.605 56.889-70.795 78.38-120.099 8.849-20.227 34.133-77.116 45.511-198.479h-599.23c5.057 54.36 18.963 107.457 41.719 156.76zM644.741-5.847c-22.756-1.264-37.926 16.435-60.681 44.247s-49.304 60.681-92.286 61.946h-3.793c-35.398 0-58.153-20.227-78.38-37.926-21.491-18.963-36.662-30.341-60.681-27.812-26.548 5.057-50.568 18.963-67.002 39.19s-27.812 45.511-30.341 72.059c-6.321 40.454-12.642 78.38-18.963 113.778s-11.378 68.267-15.17 98.607h597.965c-1.264-122.627-13.906-237.669-78.38-309.728-13.906-15.17-46.775-51.832-92.286-54.36zM902.637 415.131c0-3.793-3.793-7.585-7.585-7.585h-769.896c-3.793 0-7.585 3.793-7.585 7.585v65.738c0 3.793 3.793 7.585 7.585 7.585h769.896c3.793 0 7.585-3.793 7.585-7.585v-65.738z" />
<glyph unicode="&#xe929;" glyph-name="minus-circle" d="M512 960c-283.698 0-512-228.302-512-512s228.302-512 512-512 512 229.98 512 512-229.98 512-512 512zM688.262 406.033h-350.846c-23.502 0-41.967 18.466-41.967 41.967s18.466 41.967 41.967 41.967h350.846c23.502 0 41.967-18.466 41.967-41.967s-18.466-41.967-41.967-41.967z" />
<glyph unicode="&#xe92a;" glyph-name="non-veg" d="M727.040-64h-430.080c-163.84 0-296.96 133.12-296.96 296.96v430.080c0 163.84 133.12 296.96 296.96 296.96h430.080c163.84 0 296.96-133.12 296.96-296.96v-430.080c0-163.84-133.12-296.96-296.96-296.96v0zM727.040 857.6h-430.080c-106.496 0-194.56-88.064-194.56-194.56v-430.080c0-106.496 88.064-194.56 194.56-194.56h430.080c106.496 0 194.56 88.064 194.56 194.56v430.080c0 106.496-88.064 194.56-194.56 194.56zM802.816 448c0-160.613-130.203-290.816-290.816-290.816s-290.816 130.203-290.816 290.816c0 160.613 130.203 290.816 290.816 290.816s290.816-130.203 290.816-290.816z" />
<glyph unicode="&#xe92b;" glyph-name="order-icon-1" d="M774.723 221.479c-5.172 0-9.309 2.069-12.412 5.172l-67.232 68.267c-7.24 7.24-7.24 18.618 0 25.859s18.618 7.24 25.859 0l53.786-54.82 112.743 116.881c7.24 7.24 18.618 7.24 25.859 1.034 7.24-7.24 7.24-18.618 1.034-25.859l-125.156-130.327c-5.172-4.137-9.309-5.172-14.481-6.206v0zM812.994 520.404c-58.958 106.537-161.358 179.976-280.307 201.697 1.034 5.172 2.069 10.343 2.069 15.515 0 42.408-35.168 77.576-77.576 77.576s-77.576-35.168-77.576-77.576c0-5.172 1.034-10.343 2.069-15.515-188.251-31.030-321.681-175.838-321.681-362.020 0-10.343 9.309-19.653 19.653-19.653h505.794c-1.034-5.172-2.069-11.378-2.069-16.549h-524.412c-32.065 0-58.958-26.893-58.958-58.958v-13.446c0-32.065 26.893-58.958 58.958-58.958h553.374c38.271-65.164 108.606-109.64 189.285-109.64 121.018 0 220.315 99.297 219.281 219.281 0 116.881-92.057 213.075-207.903 218.246zM455.111 775.887c20.687 0 38.271-16.549 38.271-38.271 0-3.103-1.034-7.24-2.069-10.343-10.343 1.034-22.756 1.034-35.168 1.034s-24.824-1.034-37.236-1.034c-1.034 3.103-2.069 7.24-2.069 10.343 0 20.687 17.584 38.271 38.271 38.271zM99.297 379.733c10.343 177.907 160.323 309.269 357.883 309.269h13.446c4.137 0 8.275 0 12.412-1.034 115.846-7.24 222.384-70.335 284.444-168.598l1.034-1.034c-78.61-12.412-143.774-66.198-171.701-138.602h-497.519zM58.958 231.822v0c-10.343 0-19.653 8.275-19.653 19.653v13.446c0 10.343 9.309 19.653 19.653 19.653h524.412c1.034-18.618 5.172-36.202 10.343-52.752h-534.756zM801.616 118.044c-101.366 0-184.113 82.747-184.113 184.113s82.747 184.113 184.113 184.113 184.113-82.747 184.113-184.113-82.747-184.113-184.113-184.113z" />
<glyph unicode="&#xe92c;" glyph-name="order-icon-2" d="M810.925 521.438c-56.889 105.503-160.323 178.941-279.273 200.663 1.034 5.172 2.069 10.343 2.069 15.515 0 42.408-35.168 77.576-77.576 77.576s-77.576-35.168-77.576-77.576c0-5.172 1.034-10.343 2.069-15.515-188.251-31.030-321.681-175.838-321.681-362.020 0-10.343 9.309-19.653 19.653-19.653h506.828c-1.034-6.206-2.069-11.378-2.069-17.584h-524.412c-32.065 0-58.958-26.893-58.958-58.958v-13.446c0-32.065 26.893-58.958 58.958-58.958h553.374c38.271-65.164 108.606-108.606 189.285-108.606 121.018 0 219.281 99.297 219.281 219.281 0 117.915-93.091 214.109-209.972 219.281zM454.077 774.853c20.687 0 38.271-17.584 38.271-38.271 2.069-3.103 1.034-6.206 0-10.343-12.412 1.034-24.824 1.034-37.236 1.034s-24.824-1.034-37.236-1.034c-1.034 3.103-2.069 7.24-2.069 10.343 0 20.687 17.584 38.271 38.271 38.271zM98.263 379.733c10.343 177.907 160.323 309.269 357.883 309.269h13.446c4.137 0 8.275 0 12.412-1.034 116.881-7.24 222.384-70.335 284.444-169.632-78.61-12.412-142.739-66.198-169.632-138.602h-498.554zM58.958 230.788v0c-10.343 0-19.653 9.309-19.653 19.653v13.446c0 10.343 9.309 19.653 19.653 19.653h524.412c1.034-18.618 5.172-36.202 11.378-52.752h-535.79zM801.616 118.044c-101.366 0-184.113 82.747-184.113 184.113s82.747 184.113 184.113 184.113c101.366 0 184.113-82.747 184.113-184.113s-82.747-184.113-184.113-184.113zM912.291 382.836c-2.069 4.137-7.24 7.24-12.412 6.206l-225.487-29.996c-6.206-1.034-10.343-5.172-11.378-10.343s1.034-10.343 6.206-13.446l81.713-48.614 5.172-94.125c0-5.172 4.137-9.309 9.309-11.378 2.069-1.034 3.103-1.034 4.137-1.034 4.137 0 8.275 2.069 10.343 5.172l133.43 181.010c3.103 5.172 3.103 11.378-1.034 16.549zM838.853 354.909l-76.541-44.477-47.58 27.927 124.121 16.549zM780.929 230.788l-3.103 55.855 77.576 45.511-74.473-101.366z" />
<glyph unicode="&#xe92d;" glyph-name="oven" d="M891.99 961.234h-764.916c-12.337 0-22.207-9.87-22.207-22.207v-974.651c0-12.337 9.87-22.207 22.207-22.207h764.916c11.104 0 20.973 9.87 22.207 22.207v974.651c0 12.337-9.87 22.207-22.207 22.207zM869.783 916.819v-217.137h-721.735v217.137h721.735zM148.048-14.651v669.918h721.735v-669.918h-721.735zM804.395 807.017c0-28.618-23.199-51.817-51.817-51.817s-51.817 23.199-51.817 51.817c0 28.618 23.199 51.817 51.817 51.817s51.817-23.199 51.817-51.817zM287.46 807.017c0-15.672-12.704-28.376-28.376-28.376s-28.376 12.704-28.376 28.376c0 15.672 12.704 28.376 28.376 28.376s28.376-12.704 28.376-28.376zM382.458 807.017c0-15.672-12.704-28.376-28.376-28.376s-28.376 12.704-28.376 28.376c0 15.672 12.704 28.376 28.376 28.376s28.376-12.704 28.376-28.376zM476.222 807.017c0-15.672-12.704-28.376-28.376-28.376s-28.376 12.704-28.376 28.376c0 15.672 12.704 28.376 28.376 28.376s28.376-12.704 28.376-28.376zM793.292 608.386h-562.583c-12.337 0-22.207-9.87-22.207-22.207v-524.337c0-12.337 9.87-22.207 22.207-22.207h562.583c11.104 0 20.973 9.87 22.207 22.207v524.337c0 12.337-9.87 22.207-22.207 22.207zM771.084 82.814h-519.402v481.157h519.402v-481.157z" />
<glyph unicode="&#xe92e;" glyph-name="pizza-hut" d="M56.274 305.009c0 15.683-3.69 30.443-11.993 45.204-4.613 5.535-11.993 9.225-19.373 9.225-35.056 0-23.986-56.274-18.45-75.647 1.845-8.303 6.458-16.605 12.915-22.141s14.76-8.303 23.063-10.148c1.845-0.923 4.613-0.923 6.458-0.923 7.38 0.923 11.993 8.303 11.070 15.683-1.845 12.915-3.69 25.831-3.69 38.746zM1023.077 543.020c0 0-34.133 283.214-276.757 359.784-135.611 43.359-202.955 30.443-285.982 15.683-97.787-16.605-214.948-59.041-298.897-130.076-58.119-48.894-115.315-123.618-137.456-215.87-11.993-49.816-12.915-101.477-4.613-152.216 2.768-19.373 30.443-36.901 30.443-5.535 3.69 347.791 289.672 413.29 299.82 415.135 3.69 0.923 7.38 0.923 10.148 1.845 4.613 0.923 9.225 1.845 13.838 0.923 1.845 0 3.69-1.845 2.768-3.69 0-0.923-0.923-1.845-1.845-2.768-23.063-11.070-112.548-41.514-160.519-83.95-48.894-43.359-113.47-113.47-133.766-233.398-5.535-67.344-4.613-134.688 2.768-201.11 5.535-43.359 35.056-101.477 54.429-126.386 52.584-67.344 142.991-124.541 192.807-142.068 31.366-11.070 69.189-14.76 89.485-19.373 2.768-0.923 4.613-3.69 4.613-6.458-0.923-2.768-2.768-4.613-5.535-4.613-31.366-4.613-107.013 11.993-169.744 43.359-47.049 23.063-79.337 55.351-111.625 89.485-35.056 37.823-53.506 76.569-66.422 74.724-21.218-4.613-2.768-49.816 6.458-67.344 32.288-59.964 96.865-112.548 129.153-130.076 76.569-40.591 162.364-59.041 248.159-52.584 197.42 16.605 319.193 111.625 372.699 186.35 31.366 43.359 102.4 134.688 100.555 269.377 0 21.218 1.845 169.744-47.049 247.236-11.070 17.528-44.281 89.485-169.744 151.294-9.225 4.613-52.584 26.753-87.64 27.676-14.76 0-44.281 1.845-41.514 19.373 1.845 11.993 74.724-3.69 83.027-5.535 52.584-14.76 120.85-55.351 166.977-90.407 144.836-110.703 130.076-345.946 130.076-345.946-6.458-250.004-152.216-355.171-257.384-417.903-1.845-0.923-9.225-11.070-7.38-14.76s7.38-2.768 11.993-2.768c40.591 3.69 79.337 34.133 113.47 60.886 173.434 135.611 181.737 241.701 191.885 281.369 14.76 57.196 14.76 174.357 8.303 210.335zM612.555 580.843c7.38 0.923 11.070-3.69 12.915-11.993 1.845-4.613 2.768-10.148 3.69-14.76 2.768-15.683 6.458-30.443 11.993-45.204 2.768-0.923 17.528-4.613 32.288-8.303 25.831-6.458 59.041-14.76 71.957-20.295 3.69-0.923 8.303-2.768 12.915-4.613 44.281-16.605 64.577-25.831 66.422-38.746 0-4.613-1.845-9.225-4.613-12.915-3.69-4.613-9.225-7.38-15.683-6.458-5.535 0-105.168-5.535-204.8-15.683-39.668-4.613-74.724-8.303-101.477-12.915-108.858-17.528-297.975-56.274-303.51-57.196-0.923-0.923-2.768-0.923-3.69-0.923-4.613-0.923-10.148 0.923-12.915 4.613-1.845 1.845-1.845 5.535 0 8.303 4.613 8.303 63.654 47.049 95.020 64.577 27.676 16.605 60.886 31.366 78.414 39.668 6.458 3.69 11.993 6.458 12.915 6.458 1.845 1.845 11.993 18.45 20.295 31.366 27.676 44.281 29.521 46.126 33.211 46.126 2.768 0 47.049 11.070 89.485 22.141 63.654 16.605 102.4 25.831 105.168 26.753z" />
<glyph unicode="&#xe92f;" glyph-name="pizza-hut-logo" d="M14.73 410.699c0 4.039-0.95 8.078-2.851 11.642-1.426 1.663-3.326 2.613-5.227 2.613-9.266 0.238-6.177-14.73-4.752-19.72 0.475-2.376 1.663-4.277 3.326-5.94 1.901-1.426 4.039-2.138 6.177-2.613 0.475-0.238 1.188-0.238 1.663-0.238 1.901 0.238 3.089 2.138 2.851 4.039-0.713 3.326-1.188 6.89-1.188 10.216zM267.998 473.184c0 0-8.791 74.127-72.702 94.084-35.4 11.167-53.219 7.84-75.077 4.039-25.659-4.514-56.308-15.443-78.166-34.213-15.206-12.83-30.174-32.312-36.113-56.546-3.089-13.067-3.564-26.61-1.188-39.915 0.95-4.989 8.078-9.741 8.078-1.663 0.95 91.233 76.028 108.34 78.641 108.815 0.95 0.238 1.901 0.475 2.851 0.713 1.188 0.238 2.376 0.475 3.564 0.475 0.475 0 0.95-0.475 0.713-1.188 0-0.238-0.238-0.475-0.475-0.713-5.94-2.851-29.461-10.691-42.053-21.858-12.83-11.404-29.698-29.698-34.925-61.060-1.426-17.581-1.188-35.163 0.95-52.744 1.426-11.167 9.266-26.61 14.255-33.025 13.78-17.581 37.539-32.549 50.606-37.301 8.316-2.851 18.294-3.801 23.284-4.989 0.713 0 1.426-0.95 1.188-1.663 0-0.713-0.713-1.188-1.426-1.188-8.316-1.426-28.035 3.326-44.429 11.167-12.355 6.177-20.908 14.493-29.223 23.284-9.028 9.741-14.018 20.195-17.344 19.482-5.702-1.188-0.95-13.067 1.663-17.581 8.316-15.681 25.422-29.461 33.737-33.975 19.957-10.691 42.528-15.443 65.099-13.78 51.794 4.277 83.393 29.223 97.648 48.705 8.316 11.404 26.847 35.4 26.372 70.563-0.238 5.702 0.475 44.429-12.355 64.861-2.851 4.514-11.642 23.521-44.429 39.677-2.613 1.188-13.78 6.89-22.808 7.128-3.801 0.238-11.642 0.475-10.929 4.989 0.475 3.326 19.72-1.188 21.62-1.663 13.78-3.801 31.599-14.493 43.716-23.759 38.014-28.986 34.213-90.521 34.213-90.521-1.663-65.336-39.915-93.134-67.475-109.528-0.475-0.475-2.613-2.851-1.901-3.801s1.901-0.95 3.326-0.713c10.454 1.188 20.908 8.791 29.698 15.918 45.379 35.4 47.517 63.436 50.368 73.89 3.089 15.443 3.089 46.092 1.426 55.595zM159.896 483.4v0c2.376 0.238 3.089-0.95 3.801-3.089 0.475-1.188 0.713-2.613 0.95-3.801 0.95-3.801 1.901-7.84 3.326-11.642 0.95-0.238 4.752-1.426 8.553-2.376 6.652-1.901 15.206-4.039 18.769-5.465 0.95-0.475 2.138-0.95 3.564-1.426 11.404-4.514 16.869-6.89 16.869-9.266-0.238-1.426-0.475-2.613-1.426-3.564-1.188-1.188-2.613-1.901-4.277-1.663-1.426 0.238-27.56-1.188-53.695-4.039-10.454-1.188-19.482-2.376-26.61-3.564-28.273-4.752-77.691-14.493-79.354-14.968-0.238-0.238-0.713-0.238-0.95-0.238-1.188-0.238-2.376 0.238-3.326 1.188-0.475 0.713-0.475 1.663 0 2.376 1.188 2.138 16.869 12.117 24.947 16.869 7.128 4.039 15.918 8.078 20.432 10.216 1.663 0.713 3.326 1.426 3.564 1.663 0.238 0.475 3.089 4.752 5.227 8.078 7.365 11.167 7.84 11.879 8.791 11.879 0.713 0.238 12.117 3.089 23.284 5.94 16.631 4.277 26.847 6.652 27.56 6.89zM957.476 404.284h8.078v-1.663h-3.089v-8.553h-1.901v8.553h-3.089v1.663zM966.742 404.284h3.089l2.851-7.84 2.851 7.84h3.089v-10.216h-1.901v8.553l-3.089-8.553h-1.663l-3.089 8.553v-8.553h-1.901l-0.238 10.216zM865.767 410.699c3.326 9.979 7.603 33.025-6.415 36.588-5.227 1.188-10.691 0-14.968-3.326 0-5.227 5.702-4.277 5.94-9.266-3.564-10.691-18.769-30.411-5.702-42.29 11.642-10.691 30.649 2.138 36.588 6.415 4.514 3.326 8.316 7.84 11.879 8.316 1.426-13.78 6.652-23.046 18.769-24.709 3.564 4.039 0.475 8.553 0.713 13.542 0.238 8.078 2.851 17.581 4.752 25.422 1.901 8.316 6.652 17.581 0.475 25.422-7.365 1.663-10.454-4.514-13.78-8.316-10.454-12.592-21.62-22.096-38.252-27.798zM530.057 457.979c-9.741 3.564-26.135 1.188-40.627 2.138-13.067 0.713-29.936 5.465-28.986-5.702 0.95-13.305 27.56-11.642 41.34-10.454-9.741-9.028-21.145-17.819-32.312-26.847-9.503-8.078-27.085-17.581-22.333-35.4 10.691-6.177 23.521 0 38.014 0.713 26.847 0.95 49.893-7.128 75.315-4.752 9.979 0.95 25.659 4.277 24.947 15.206-5.702 3.326-10.454-0.238-15.918-0.713-26.372-2.851-51.081 11.879-80.78 9.979 7.603 8.078 17.819 15.918 26.61 24.471 7.84 6.89 19.72 16.631 14.73 31.361zM450.227 464.394c-4.039 1.901-5.702 0.713-7.365-1.663-11.879-14.255-38.727-36.588-36.351-59.872 0.95-8.316 5.702-19.007 16.394-15.443 3.089 2.851 1.901 6.652 3.326 10.216 8.791 21.145 33.737 35.876 23.996 66.762zM567.595 419.49c7.603 6.89 14.018 13.78 22.571 21.858 5.94 5.465 21.62 15.206 17.106 27.085-2.613 6.415-13.78 7.84-21.62 7.84-11.404 0-25.897-3.564-37.776-3.089-4.039 0.238-7.84 3.564-10.929 0.95-10.691-22.096 22.808-20.67 39.439-19.007-11.879-13.067-33.025-20.67-43.478-35.163-2.851-3.801-6.177-9.741-3.801-16.156 4.514-3.564 9.503-1.188 14.493-0.95 22.096 0.713 47.28-6.652 63.911 1.188 3.326 1.663 5.465 4.514 8.791 6.652 20.195-6.415 34.45 4.989 46.092 11.404 7.128-9.503 36.113-10.216 38.489 2.376-4.514 7.84-17.106 3.326-19.482 12.117s12.83 21.62 3.326 31.361c-3.801 2.613-7.84-1.426-9.979 0.238-28.986 3.564-58.922-12.117-66.287-33.5-1.901-5.702-0.713-12.83 0.713-17.819-12.117-5.465-28.035 0.713-41.578 2.613zM634.12 430.894c3.089 12.83 14.73 17.581 27.798 20.908 3.564-0.238-1.663-3.801-1.188-5.94-1.188-2.376-1.901-4.989-1.901-7.603-8.078-2.376-13.78-7.365-24.709-7.365zM979.334 491.954c-10.454 2.851-14.73-5.227-20.908-12.592-4.989-5.94-7.84-11.879-10.691-12.592-6.89-2.138-17.819 4.514-23.759 2.851-2.851-0.95-4.989-3.564-5.465-6.652-0.238-9.028 10.691-10.454 19.72-13.78-4.039-8.553-9.028-19.007-11.642-30.411-2.613-10.454-5.465-26.135 0.713-37.301 7.128 1.188 9.028 9.741 11.404 15.206 8.316 18.769 16.156 38.014 26.847 54.17 16.394 1.188 33.5 5.702 46.329 9.028 4.752 1.188 11.167 0.713 13.067 5.94-3.326 4.039-9.979 2.613-15.443 2.613-12.83 0-26.61-0.713-35.163-0.713 2.613 6.177 11.404 14.018 4.989 24.234zM487.053 510.010c-12.83 4.277-33.975-5.94-40.865-15.918-4.514-6.415-5.94-19.007 2.613-21.145 10.691-2.851 18.769 9.266 23.284 14.255 6.89 7.603 12.83 12.83 14.968 22.808zM780.236 457.028c4.514 8.553 7.365 16.394 12.117 27.085 2.138 4.752 13.78 26.135 2.613 28.748 0 0-0.713 0.238-0.95 0-19.007-5.227-32.312-41.578-44.191-56.546-14.493 0.475-32.074 1.426-31.124-9.028 0.713-8.553 13.305-10.216 20.432-14.493-2.613-8.316-18.769-42.29-4.989-50.844 14.493-9.028 21.858 12.117 25.184 20.908 4.039 11.167 7.128 21.145 11.879 29.698 11.404 0.95 23.996 4.752 33.262 4.752-2.613-9.741-8.078-23.521-2.138-36.351 10.454-6.89 18.532 0.713 22.096 7.365 5.94 10.929 6.652 30.174 10.929 38.964 6.89 4.039 17.344 4.514 19.007 13.542-4.039 3.801-9.979 0-15.206 0.238 1.426 7.128 4.989 14.73 7.365 21.858s7.128 16.156 1.426 23.759c-11.642-2.138-16.869-12.83-21.858-20.908-5.465-9.266-9.979-19.007-15.443-27.798-9.741-0.475-19.245-1.663-30.411-0.95zM354.242 435.645c4.277 4.989 12.117 4.039 18.769 5.702 11.879 3.326 30.174 11.879 29.698 26.847-0.475 13.305-13.305 20.908-28.035 23.046-10.454-35.876-28.035-67.712-44.904-99.074-4.989-9.503-9.979-23.284-23.284-24.471-6.415 5.702-4.277 13.78-3.326 19.482 3.089 16.869 10.929 35.163 17.819 49.893 9.503 19.957 21.858 38.489 36.826 54.883-6.177-0.238-9.979-1.188-14.493 1.901-3.801 17.581 14.493 21.145 27.085 22.096 28.986 1.901 58.209-14.73 57.496-44.429-0.713-24.234-26.61-40.152-51.319-42.053-6.89-0.713-17.581-1.426-22.333 6.177z" />
<glyph unicode="&#xe930;" glyph-name="rating" d="M783.17-40.296c-11.378 0-22.756 2.844-33.185 7.585l-217.126 113.778c-12.326 6.637-27.496 6.637-40.77 0l-217.126-113.778c-24.652-12.326-54.044-10.43-76.8 5.689s-34.133 43.615-28.444 71.111l40.77 239.881c2.844 14.222-1.896 29.393-12.326 39.822l-174.459 170.667c-19.911 19.911-26.548 48.356-18.015 74.904s31.289 45.511 59.733 48.356l242.726 36.030c14.222 1.896 27.496 11.378 33.185 24.652l108.089 218.074c10.43 23.704 35.081 38.874 62.578 39.822v0c28.444 0 53.096-15.17 65.422-40.77l108.089-219.022c6.637-13.274 18.963-22.756 33.185-24.652l243.674-36.030c27.496-2.844 50.252-21.807 58.785-48.356s1.896-54.993-18.015-74.904l-177.304-168.77c-9.481-10.43-14.222-24.652-12.326-38.874l40.77-239.881c4.741-27.496-6.637-54.044-28.444-70.163-12.326-10.43-27.496-15.17-42.667-15.17zM512 115.2c11.378 0 22.756-2.844 33.185-8.533l217.126-113.778c15.17-7.585 33.185-5.689 47.407 3.793 13.274 9.481 19.911 26.548 17.067 42.667l-40.77 239.881c-3.793 23.704 3.793 47.407 19.911 64.474l176.356 168.77c12.326 11.378 16.119 29.393 11.378 45.511s-18.963 27.496-35.081 29.393l-243.674 36.030c-23.704 2.844-44.563 18.015-54.993 40.77l-108.089 219.022c-7.585 15.17-22.756 24.652-38.874 24.652v0c-16.119 0-32.237-9.481-39.822-24.652l-108.089-217.126c-10.43-21.807-30.341-36.978-54.993-39.822l-242.726-36.978c-17.067-1.896-31.289-13.274-36.030-29.393-5.689-16.119-0.948-34.133 11.378-45.511l174.459-170.667c17.067-17.067 24.652-40.77 20.859-64.474l-40.77-239.881c-2.844-17.067 3.793-33.185 17.067-42.667 14.222-9.481 32.237-11.378 47.407-3.793l217.126 113.778c9.481 5.689 20.859 8.533 33.185 8.533z" />
<glyph unicode="&#xe931;" glyph-name="rating-active" d="M1003.141 492.563c19.911 19.911 26.548 48.356 18.015 74.904s-31.289 45.511-58.785 48.356l-243.674 36.030c-14.222 1.896-26.548 11.378-33.185 24.652l-108.089 219.022c-12.326 25.6-36.978 40.77-65.422 40.77-27.496-0.948-52.148-16.119-62.578-39.822l-108.089-218.074c-5.689-13.274-18.963-22.756-33.185-24.652l-242.726-36.030c-28.444-2.844-51.2-21.807-59.733-48.356s-1.896-54.993 18.015-74.904l174.459-170.667c10.43-10.43 15.17-25.6 12.326-39.822l-40.77-239.881c-5.689-27.496 5.689-54.993 28.444-71.111s52.148-18.015 76.8-5.689l217.126 113.778c13.274 6.637 28.444 6.637 40.77 0l217.126-113.778c10.43-4.741 21.807-7.585 33.185-7.585 15.17 0 30.341 4.741 42.667 15.17 21.807 16.119 33.185 42.667 28.444 70.163l-40.77 239.881c-1.896 14.222 2.844 28.444 12.326 38.874l177.304 168.77z" />
<glyph unicode="&#xe932;" glyph-name="recieved" d="M760.686 368.208l-13.299-13.299c-2.66-2.66-3.99-5.319-3.99-9.309l-21.278-22.608c0 0 0 0 0 0l-127.668-131.657c-2.66-1.33-3.99-2.66-6.649-3.99l-9.309-9.309c-13.299-13.299-25.268-59.844-29.257-78.462-1.33-5.319 1.33-11.969 5.319-15.958 3.99-2.66 7.979-3.99 11.969-3.99 1.33 0 2.66 1.33 2.66-1.33 19.948 5.319 65.164 18.618 78.462 31.917l9.309 9.309c1.33 1.33 2.66 3.99 3.99 6.649l126.338 130.327c2.66 1.33 3.99 2.66 5.319 2.66l29.257 30.587c1.33 1.33 2.66 3.99 2.66 5.319l6.649 6.649c17.288 19.948 15.958 49.205-2.66 67.823-19.948 18.618-49.205 17.288-67.823-1.33zM807.231 345.6c6.649-5.319 6.649-14.629 1.33-19.948v0l-21.278 19.948c5.319 5.319 13.299 5.319 19.948 0zM758.026 313.683l6.649 7.979 21.278-19.948-6.649-6.649-21.278 18.618zM734.088 288.416l21.278-18.618-109.049-111.709-21.278 18.618 109.049 111.709zM602.431 152.769l21.278-19.948c-3.99-2.66-17.288-9.309-34.577-14.629 5.319 17.288 9.309 30.587 13.299 34.577zM867.075 471.938v200.81c0 6.649-2.66 13.299-6.649 17.288l-265.974 263.314c-3.99 3.99-9.309 6.649-15.958 6.649h-485.403c-35.906 0-66.494-29.257-66.494-65.164v-880.374c0-37.236 29.257-66.494 66.494-66.494h518.649c1.33 0 2.66-1.33 5.319-1.33 25.268-7.979 51.865-11.969 81.122-11.969 163.574 0 295.231 132.987 295.231 295.231 0 97.081-46.545 186.182-126.338 242.036zM601.101 885.527l190.171-188.842h-190.171v188.842zM70.483 13.132v879.044c0 11.969 9.309 22.608 22.608 22.608h464.125v-242.036c0-11.969 9.309-22.608 22.608-22.608h243.366v-152.935c-38.566 19.948-82.452 27.927-126.338 27.927s-85.112-9.309-123.678-26.597c-1.33 0-1.33-1.33-2.66-1.33-2.66 1.33-6.649 2.66-10.639 2.66h-379.013c-11.969 0-22.608-10.639-22.608-22.608s10.639-22.608 22.608-22.608h323.158c-27.927-23.938-51.865-53.195-69.153-85.112 0 0 0-1.33-1.33-1.33h-252.675c-11.969 0-22.608-10.639-22.608-22.608s10.639-22.608 22.608-22.608h232.727c-7.979-27.927-14.629-57.184-14.629-86.442h-243.366c-11.969 0-22.608-10.639-22.608-22.608 0-13.299 10.639-22.608 22.608-22.608h246.026c11.969-81.122 55.855-152.935 121.018-199.481h-429.548c-11.969 0-22.608 9.309-22.608 21.278zM698.182-18.784c-1.33 0-1.33 0 0 0-23.938 1.33-46.545 3.99-69.153 10.639-18.618 3.99-37.236 11.969-54.525 21.278-69.153 38.566-115.699 106.39-126.338 184.852-1.33 11.969-2.66 22.608-2.66 33.247v1.33c0 29.257 5.319 57.184 14.629 83.782 3.99 10.639 7.979 19.948 14.629 30.587 19.948 34.577 46.545 66.494 81.122 89.101 10.639 7.979 22.608 14.629 35.906 19.948 33.247 14.629 69.153 22.608 105.060 22.608h1.33c39.896 0 78.462-9.309 113.039-27.927 7.979-3.99 13.299-6.649 19.948-10.639 73.143-45.216 117.029-123.678 117.029-210.119-1.33-136.977-111.709-248.686-250.016-248.686zM180.862 586.306h265.974c11.969 0 22.608 10.639 22.608 22.608s-10.639 22.608-22.608 22.608h-267.304c-11.969 0-21.278-10.639-21.278-22.608 0-13.299 10.639-22.608 22.608-22.608z" />
<glyph unicode="&#xe933;" glyph-name="sorry-icon" d="M512 960c-282.88 0-512-229.44-512-512s229.12-512 512-512 512 229.12 512 512-229.12 512-512 512zM631.040 560.64c0.32 22.080 18.24 40 40.32 40.32h20.16c22.080-0.32 40-18.24 40.32-40.32v-136c-0.32-22.080-18.24-40-40.32-40.32h-20.16c-22.080 0.32-40 18.24-40.32 40.32v136zM293.76 560.64c0.32 22.080 18.24 40 40.32 40.32h20.16c22.080-0.32 40-18.24 40.32-40.32v-136c-0.32-22.080-18.24-40-40.32-40.32h-20.16c-22.080 0.32-40 18.24-40.32 40.32v136zM734.72 153.6c-0.32-0.32-0.64-0.96-1.28-1.28-5.12-4.16-11.84-6.4-18.56-6.72-5.12 0-9.92 1.6-13.44 5.12-1.6 1.6-75.52 63.68-186.24 63.68h-3.2c-112.32 0-186.24-63.68-186.24-63.68-8.32-6.72-21.76-6.72-28.48 1.6s-6.72 21.76 1.6 28.48c3.52 3.2 85.76 73.92 213.12 73.92h6.72c127.68 0 209.92-70.4 213.12-73.92 8.32-6.72 9.6-18.88 2.88-27.2z" />
<glyph unicode="&#xe934;" glyph-name="takeaway" d="M1004.8 243.2l-148.8 164.8c-14.4 16-33.6 24-54.4 24h-580.8c-20.8 0-40-8-54.4-24l-147.2-164.8c-11.2-12.8-19.2-30.4-19.2-48v-139.2c0-40 32-72 72-72v0h878.4c40 0 72 32 72 72v0 137.6c1.6 19.2-4.8 35.2-17.6 49.6zM72 188.8l16 35.2h265.6l6.4-35.2h-288zM608 216c0-4.8-1.6-11.2-1.6-16-12.8-51.2-67.2-83.2-118.4-68.8-27.2 8-51.2 25.6-62.4 51.2-3.2 4.8-4.8 11.2-6.4 17.6-1.6 4.8-1.6 11.2-1.6 16 0 3.2 0 4.8 0 8h193.6c-1.6-3.2-3.2-4.8-3.2-8zM664 188.8l6.4 35.2h265.6l16-35.2h-288zM536 710.4l4.8-6.4 8-12.8c4.8-9.6 11.2-17.6 16-27.2 9.6-16 17.6-33.6 24-51.2 4.8-16 6.4-32 3.2-48-4.8-19.2-12.8-35.2-25.6-51.2-12.8-17.6-27.2-33.6-41.6-51.2 22.4 6.4 44.8 14.4 64 27.2 22.4 12.8 40 32 52.8 56 6.4 12.8 11.2 27.2 12.8 40 1.6 14.4 1.6 27.2-1.6 41.6-4.8 25.6-12.8 49.6-25.6 72-4.8 11.2-11.2 20.8-17.6 30.4l-9.6 14.4-4.8 6.4-3.2 4.8c-9.6 12.8-16 28.8-19.2 44.8-1.6 19.2-1.6 38.4 3.2 56 4.8 22.4 11.2 43.2 19.2 64-20.8-11.2-40-27.2-54.4-46.4-16-20.8-25.6-46.4-28.8-72-1.6-28.8 3.2-56 17.6-81.6l6.4-9.6zM380.8 632l3.2-4.8 4.8-8c3.2-6.4 8-11.2 9.6-17.6 6.4-11.2 11.2-22.4 16-33.6 3.2-9.6 4.8-20.8 1.6-32-3.2-12.8-8-24-16-33.6-8-11.2-17.6-22.4-27.2-33.6 14.4 3.2 28.8 9.6 41.6 17.6 14.4 8 27.2 20.8 35.2 36.8s11.2 35.2 6.4 54.4c-3.2 16-9.6 32-17.6 46.4-3.2 6.4-8 14.4-11.2 20.8l-6.4 9.6-6.4 8c-6.4 9.6-9.6 19.2-12.8 30.4-1.6 12.8-1.6 25.6 1.6 36.8 3.2 14.4 8 27.2 12.8 41.6-14.4-8-25.6-17.6-35.2-30.4-11.2-14.4-17.6-30.4-19.2-48-1.6-19.2 3.2-36.8 11.2-52.8l8-8z" />
<glyph unicode="&#xe935;" glyph-name="time" d="M512 960c-282.819 0-512-229.181-512-512s229.181-512 512-512 512 229.181 512 512-229.181 512-512 512zM548.571 445.562c0-19.505-17.067-36.571-36.571-36.571h-175.543c-19.505 0-36.571 17.067-36.571 36.571s17.067 36.571 36.571 36.571h138.971v263.314c0 19.505 17.067 36.571 36.571 36.571s36.571-17.067 36.571-36.571v-299.886z" />
<glyph unicode="&#xe936;" glyph-name="twitter" d="M323.129 27.022c384.569 0 596.196 325.404 596.196 605.298v27.307c40.96 29.582 75.093 68.267 104.676 109.227-38.684-18.204-79.644-29.582-120.604-31.858 43.236 27.307 77.369 68.267 91.022 116.053-40.96-25.031-86.471-40.96-131.982-52.338-77.369 86.471-209.351 91.022-293.547 13.653-2.276-2.276-2.276-2.276-4.551-4.551-54.613-52.338-77.369-129.707-61.44-202.524-168.391 9.102-325.404 88.747-432.356 220.729-54.613-95.573-27.307-218.453 65.991-282.169-34.133 2.276-65.991 11.378-95.573 25.031v-4.551c0-100.124 70.542-188.871 168.391-207.076-31.858-9.102-63.716-9.102-95.573-4.551 27.307-86.471 104.676-145.636 195.698-147.911-75.093-59.164-166.116-91.022-261.689-91.022-15.929 0-34.133 2.276-50.062 4.551 100.124-61.44 211.627-93.298 325.404-93.298z" />
<glyph unicode="&#xe937;" glyph-name="user-circle" d="M512 960c-282.88 0-512-229.12-512-512s229.12-512 512-512 512 229.12 512 512-229.12 512-512 512zM512 672c72.96 0 133.12-60.16 133.12-133.12s-60.16-133.12-133.12-133.12-133.12 60.16-133.12 133.12 60.16 133.12 133.12 133.12zM744.96 249.6c0-14.080-11.52-25.6-25.6-25.6h-416c-14.080 0-25.6 11.52-25.6 25.6v19.2c0 66.56 55.040 121.6 121.6 121.6h225.28c66.56 0 120.32-53.76 120.32-120.32v-20.48z" />
<glyph unicode="&#xe938;" glyph-name="work" d="M540.672 452.096h-55.296c-18.432 0-32.768 12.288-36.864 30.72h-378.88c-20.48 0-36.864-16.384-36.864-36.864v-376.832c0-20.48 16.384-36.864 36.864-36.864h882.688c0 0 2.048 0 2.048 0 20.48 2.048 34.816 18.432 32.768 36.864v376.832c0 20.48-16.384 36.864-36.864 36.864h-372.736c-4.096-18.432-18.432-30.72-36.864-30.72zM987.136 744.96h-337.92v53.248c0 32.768-26.624 59.392-59.392 59.392h-151.552c-32.768 0-59.392-26.624-59.392-59.392v-53.248h-342.016c-20.48 0-36.864-16.384-36.864-36.864v-159.744c0-20.48 16.384-36.864 36.864-36.864h411.648c2.048 18.432 16.384 32.768 36.864 32.768h55.296c18.432 0 34.816-14.336 36.864-32.768h409.6c20.48 0 36.864 16.384 36.864 36.864v159.744c0 20.48-16.384 36.864-36.864 36.864zM595.968 744.96h-167.936v53.248c0 4.096 2.048 6.144 2.048 6.144 2.048 0 4.096 2.048 6.144 2.048h151.552c4.096 0 8.192-4.096 8.192-8.192v-53.248z" />
<glyph unicode="&#xe939;" glyph-name="youtube" d="M1002.529 692.439c-11.561 44.594-46.245 77.626-90.839 89.187-79.277 21.471-399.69 21.471-399.69 21.471s-320.413 0-399.69-21.471c-44.594-11.561-79.277-46.245-90.839-89.187-21.471-79.277-21.471-244.439-21.471-244.439s0-165.161 21.471-244.439c11.561-44.594 46.245-77.626 90.839-89.187 79.277-21.471 399.69-21.471 399.69-21.471s320.413 0 399.69 21.471c44.594 11.561 79.277 46.245 90.839 89.187 21.471 79.277 21.471 244.439 21.471 244.439s0 165.161-21.471 244.439zM409.6 296.052v303.897l265.91-151.948-265.91-151.948z" />
</font>
</defs>
</svg>
